<svg width="100%" height="100%" viewBox="0 0 200 200" fill="none" xmlns="http://www.w3.org/2000/svg">
  <defs>
    <linearGradient id="aiGradient" x1="20" y1="180" x2="180" y2="20" gradientUnits="userSpaceOnUse">
      <stop offset="0%" stop-color="#4F46E5" /> <stop offset="100%" stop-color="#A855F7" /> </linearGradient>
    <filter id="glow" x="-50%" y="-50%" width="200%" height="200%">
      <feGaussianBlur stdDeviation="4" result="coloredBlur"/>
      <feMerge>
        <feMergeNode in="coloredBlur"/>
        <feMergeNode in="SourceGraphic"/>
      </feMerge>
    </filter>
  </defs>

  <path d="M100 20C55.8172 20 20 52.2355 20 92C20 113.15 30.175 132.131 46.25 145.25C43.775 157.1 37.5 169.7 30 180C47.5 178.5 70 170 85 158.5C90 159.5 95 160 100 160C144.183 160 180 127.764 180 88C180 48.2355 144.183 20 100 20Z" 
        fill="url(#aiGradient)" 
        fill-opacity="0.1" 
        stroke="url(#aiGradient)" 
        stroke-width="8" 
        stroke-linejoin="round"/>

  <g filter="url(#glow)">
    <path d="M70 100 L100 70 L130 100" stroke="url(#aiGradient)" stroke-width="6" stroke-linecap="round"/>
    <path d="M100 130 L100 70" stroke="url(#aiGradient)" stroke-width="6" stroke-linecap="round"/>
    
    <circle cx="70" cy="100" r="12" fill="white" stroke="url(#aiGradient)" stroke-width="4"/>
    <circle cx="130" cy="100" r="12" fill="white" stroke="url(#aiGradient)" stroke-width="4"/>
    <circle cx="100" cy="70" r="12" fill="white" stroke="url(#aiGradient)" stroke-width="4"/>
    <circle cx="100" cy="130" r="12" fill="white" stroke="url(#aiGradient)" stroke-width="4"/>
  </g>
</svg>